<svg width="29" height="24" viewBox="0 0 29 24" fill="none" xmlns="http://www.w3.org/2000/svg">
<path d="M27 3.70721C26.0653 4.17565 25.0632 4.47838 24.0344 4.60312C25.0803 3.86479 25.8655 2.78529 26.2688 1.53142C25.4969 2.04337 23.7906 2.76863 22.9375 2.76863C21.8996 1.68677 20.4998 1.07428 19.0375 1.06214C18.3331 1.06141 17.6355 1.20657 16.9845 1.48932C16.3336 1.77207 15.7422 2.18685 15.2441 2.70992C14.746 3.23299 14.351 3.85409 14.0818 4.53766C13.8125 5.22122 13.6743 5.95384 13.675 6.69358C13.6732 7.10938 13.7141 7.52417 13.7969 7.93079C9.775 7.8028 5.0625 5.71234 2.42188 2.08604C1.7589 3.31243 1.55801 4.75534 1.85887 6.12973C2.15973 7.50413 2.94048 8.71005 4.04688 9.5093C3.4375 9.59462 2.25937 9.46664 1.73125 8.91202C1.69062 10.8745 2.58437 13.4769 5.875 14.4155C5.225 14.7568 4.12813 14.6715 3.64062 14.5861C3.80313 16.25 6.0375 18.4257 8.43437 18.4257C7.58125 19.4496 4.65625 21.3695 1 20.7722C3.53414 22.3909 6.44326 23.2469 9.40938 23.2466C11.4425 23.2608 13.4571 22.8393 15.3298 22.0078C17.2026 21.1764 18.8941 19.9526 20.3011 18.4112C21.708 16.8698 22.8008 15.0432 23.5126 13.0431C24.2243 11.043 24.5401 8.91153 24.4406 6.7789V6.56559C25.4693 5.8047 26.3401 4.83223 27 3.70721Z" stroke="#C1C1C1"/>
</svg>
