<svg width="28" height="20" viewBox="0 0 28 20" fill="none" xmlns="http://www.w3.org/2000/svg">
<path d="M14.1865 11.6916L14.6609 11.8495C14.7116 11.6971 14.686 11.5295 14.592 11.3992C14.4981 11.2688 14.3472 11.1916 14.1865 11.1916V11.6916ZM9.73118 11.5192L10.0943 11.1755L10.0943 11.1755L9.73118 11.5192ZM9.73118 8.52924L10.0943 8.87297L10.0943 8.87297L9.73118 8.52924ZM17.6348 8.35685L18.1348 8.35795C18.1351 8.22515 18.0825 8.09769 17.9887 8.00368C17.8949 7.90968 17.7676 7.85685 17.6348 7.85685V8.35685ZM17.6239 10.3735L17.127 10.3179C17.126 10.3276 17.1252 10.3372 17.1246 10.3469L17.6239 10.3735ZM15.9877 15.1334L16.3962 15.4216L15.9877 15.1334ZM12.1368 18.1491L11.959 17.6818L12.1368 18.1491ZM7.35002 18.4192L7.22542 18.9035L7.22543 18.9035L7.35002 18.4192ZM3.21691 15.854L2.84103 16.1837L3.21691 15.854ZM1.10999 11.3054L1.60406 11.2285L1.10999 11.3054ZM4.86815 2.45664L5.14616 2.87222L4.86815 2.45664ZM9.48524 1.09503L9.47465 1.59492L9.47545 1.59493L9.48524 1.09503ZM15.0374 3.50022L14.6832 3.85314L14.6842 3.85412L15.0374 3.50022ZM15.1665 3.69528L15.6295 3.50643V3.50643L15.1665 3.69528ZM15.1665 4.16152L15.6295 4.35037V4.35037L15.1665 4.16152ZM15.0374 4.35658L15.3899 4.71117L15.3906 4.71047L15.0374 4.35658ZM13.5457 5.83951L13.8969 6.19542L13.8982 6.19411L13.5457 5.83951ZM13.1658 5.99858L13.164 5.49858L13.1658 5.99858ZM12.7849 5.84226L13.1337 5.48395L13.1309 5.48129L12.7849 5.84226ZM9.82023 4.45345L9.87185 3.95612L9.82023 4.45345ZM6.65637 5.20614L6.92428 5.62831V5.62831L6.65637 5.20614ZM4.54142 7.80342L4.07562 7.62168H4.07562L4.54142 7.80342ZM4.30967 11.2207L4.7959 11.1042L4.30967 11.2207ZM6.05254 14.11L5.72625 14.4888L6.05254 14.11ZM9.08251 15.3314L9.0587 15.8309L9.08251 15.3314ZM24.5161 8.55274H24.0161C24.0161 8.82889 24.24 9.05274 24.5161 9.05274V8.55274ZM27 10.8426L27.5 10.843V10.8426H27ZM26.8569 11.2072L27.22 11.5509L27.22 11.5509L26.8569 11.2072ZM26.5117 11.3584V11.8584H26.5122L26.5117 11.3584ZM24.5161 11.3584V10.8584C24.24 10.8584 24.0161 11.0823 24.0161 11.3584H24.5161ZM21.8564 11.3584H22.3564C22.3564 11.0823 22.1325 10.8584 21.8564 10.8584V11.3584ZM19.518 11.2074L19.155 11.5513L19.155 11.5513L19.518 11.2074ZM19.3747 10.8426H18.8747V10.843L19.3747 10.8426ZM19.3747 9.06857H19.8747V9.06855L19.3747 9.06857ZM19.4123 8.87011L19.8774 9.05361V9.05361L19.4123 8.87011ZM19.5193 8.7022L19.8808 9.04752L19.8809 9.04751L19.5193 8.7022ZM19.6791 8.59069L19.4819 8.13125L19.4819 8.13125L19.6791 8.59069ZM19.8673 8.55274L19.8626 9.05274H19.8673V8.55274ZM21.8603 8.55274V9.05274C22.1364 9.05274 22.3603 8.82889 22.3603 8.55274H21.8603ZM21.8975 6.2472L22.363 6.42972L22.363 6.42971L21.8975 6.2472ZM22.1617 5.96804L22.3622 6.4261L22.3622 6.4261L22.1617 5.96804ZM10.1252 12.1916H14.1865V11.1916H10.1252V12.1916ZM9.36806 11.863C9.56394 12.0699 9.83565 12.1916 10.1252 12.1916V11.1916C10.1191 11.1916 10.1074 11.1893 10.0943 11.1755L9.36806 11.863ZM9.06799 11.103C9.06799 11.3832 9.17307 11.657 9.36806 11.863L10.0943 11.1755C10.0803 11.1607 10.068 11.1351 10.068 11.103H9.06799ZM9.06799 8.94544V11.103H10.068V8.94544H9.06799ZM9.36806 8.18552C9.17307 8.39151 9.06799 8.66531 9.06799 8.94544H10.068C10.068 8.91336 10.0803 8.88774 10.0943 8.87297L9.36806 8.18552ZM10.1252 7.85685C9.83565 7.85685 9.56394 7.97859 9.36806 8.18552L10.0943 8.87297C10.1074 8.85912 10.1191 8.85685 10.1252 8.85685V7.85685ZM17.6348 7.85685H10.1252V8.85685H17.6348V7.85685ZM18.1208 10.429C18.1252 10.3896 18.1257 10.3148 18.1262 10.2764C18.127 10.2158 18.1277 10.1334 18.1284 10.0373C18.1297 9.84471 18.1308 9.59383 18.1318 9.34526C18.1327 9.09658 18.1335 8.84976 18.134 8.66514C18.1342 8.57283 18.1344 8.49604 18.1346 8.44234C18.1346 8.41548 18.1347 8.39439 18.1347 8.38001C18.1347 8.37283 18.1347 8.36731 18.1348 8.3636C18.1348 8.36174 18.1348 8.36033 18.1348 8.35938C18.1348 8.35891 18.1348 8.35855 18.1348 8.35831C18.1348 8.3582 18.1348 8.35811 18.1348 8.35804C18.1348 8.35801 18.1348 8.35799 18.1348 8.35798C18.1348 8.35796 18.1348 8.35795 17.6348 8.35685C17.1348 8.35574 17.1348 8.35575 17.1348 8.35576C17.1348 8.35578 17.1348 8.3558 17.1348 8.35583C17.1348 8.35589 17.1348 8.35597 17.1348 8.35609C17.1348 8.35633 17.1348 8.35668 17.1348 8.35715C17.1348 8.35808 17.1348 8.35948 17.1348 8.36133C17.1347 8.36503 17.1347 8.37053 17.1347 8.3777C17.1347 8.39203 17.1346 8.41308 17.1346 8.43989C17.1344 8.49351 17.1342 8.57019 17.134 8.66239C17.1335 8.84681 17.1327 9.09324 17.1318 9.34145C17.1308 9.58976 17.1297 9.8394 17.1284 10.0304C17.1277 10.126 17.127 10.2062 17.1263 10.2639C17.1253 10.3437 17.1243 10.3428 17.127 10.3179L18.1208 10.429ZM16.3962 15.4216C17.4273 13.9605 18.0269 12.214 18.1232 10.4L17.1246 10.3469C17.0381 11.9766 16.4995 13.5409 15.5792 14.8451L16.3962 15.4216ZM12.3146 18.6164C13.9464 17.9957 15.3649 16.883 16.3962 15.4216L15.5792 14.8451C14.659 16.149 13.3991 17.134 11.959 17.6818L12.3146 18.6164ZM7.22543 18.9035C8.91202 19.3374 10.6824 19.2373 12.3146 18.6164L11.959 17.6818C10.5194 18.2294 8.96025 18.3172 7.47461 17.935L7.22543 18.9035ZM2.84103 16.1837C4.015 17.5221 5.53911 18.4696 7.22542 18.9035L7.47461 17.935C5.98869 17.5527 4.638 16.7159 3.5928 15.5243L2.84103 16.1837ZM0.615931 11.3822C0.894747 13.1754 1.6673 14.8456 2.84103 16.1837L3.5928 15.5243C2.54735 14.3325 1.85443 12.8388 1.60406 11.2285L0.615931 11.3822ZM1.2687 6.08825C0.563697 7.74822 0.337125 9.58899 0.615931 11.3822L1.60406 11.2285C1.35368 9.61818 1.5576 7.96613 2.18913 6.47917L1.2687 6.08825ZM4.59014 2.04105C3.12753 3.01949 1.97379 4.42811 1.2687 6.08825L2.18913 6.47917C2.82059 4.99238 3.85035 3.73907 5.14616 2.87222L4.59014 2.04105ZM9.49582 0.59514C7.7593 0.558363 6.05313 1.06237 4.59014 2.04105L5.14616 2.87222C6.44161 2.00562 7.94685 1.56256 9.47465 1.59492L9.49582 0.59514ZM15.3916 3.14731C13.8018 1.55173 11.6986 0.638252 9.49502 0.595123L9.47545 1.59493C11.4123 1.63284 13.2707 2.43553 14.6832 3.85314L15.3916 3.14731ZM15.6295 3.50643C15.5748 3.3723 15.494 3.2495 15.3906 3.14633L14.6842 3.85412C14.6911 3.86106 14.6982 3.87101 14.7036 3.88413L15.6295 3.50643ZM15.7121 3.9284C15.7121 3.78402 15.6842 3.64051 15.6295 3.50643L14.7036 3.88413C14.7089 3.8973 14.7121 3.91244 14.7121 3.9284H15.7121ZM15.6295 4.35037C15.6842 4.21629 15.7121 4.07278 15.7121 3.9284H14.7121C14.7121 3.94436 14.7089 3.95951 14.7036 3.97267L15.6295 4.35037ZM15.3906 4.71047C15.494 4.6073 15.5748 4.4845 15.6295 4.35037L14.7036 3.97267C14.6982 3.98579 14.6911 3.99574 14.6842 4.00269L15.3906 4.71047ZM13.8982 6.19411L15.3899 4.71117L14.6849 4.00198L13.1932 5.48492L13.8982 6.19411ZM13.1676 6.49858C13.4434 6.49758 13.7034 6.38631 13.8969 6.19542L13.1945 5.48361C13.1818 5.49619 13.1704 5.49856 13.164 5.49858L13.1676 6.49858ZM12.4362 6.20056C12.631 6.39017 12.8919 6.49957 13.1676 6.49858L13.164 5.49858C13.1576 5.49861 13.1464 5.49633 13.1336 5.48396L12.4362 6.20056ZM9.76861 4.95078C10.7588 5.05356 11.6956 5.49075 12.4389 6.20323L13.1309 5.48129C12.2314 4.61921 11.0891 4.08247 9.87185 3.95612L9.76861 4.95078ZM6.92428 5.62831C7.78151 5.08431 8.77854 4.84802 9.76861 4.95078L9.87185 3.95612C8.65437 3.82975 7.43269 4.1213 6.38846 4.78398L6.92428 5.62831ZM5.00722 7.98516C5.39253 6.99761 6.06652 6.17265 6.92428 5.62831L6.38846 4.78398C5.34477 5.44631 4.5356 6.44274 4.07562 7.62168L5.00722 7.98516ZM4.7959 11.1042C4.5474 10.0671 4.62182 8.97294 5.00722 7.98516L4.07562 7.62168C3.61572 8.80038 3.52762 10.1027 3.82343 11.3372L4.7959 11.1042ZM6.37884 13.7311C5.60124 13.0614 5.04438 12.1412 4.7959 11.1042L3.82343 11.3372C4.11927 12.5719 4.78464 13.6778 5.72625 14.4888L6.37884 13.7311ZM9.10633 14.832C8.11255 14.7846 7.15598 14.4004 6.37884 13.7311L5.72625 14.4888C6.66832 15.3002 7.83657 15.7726 9.0587 15.8309L9.10633 14.832ZM11.914 13.9962C11.0844 14.5878 10.1 14.8794 9.10633 14.832L9.0587 15.8309C10.2809 15.8891 11.4858 15.5298 12.4946 14.8104L11.914 13.9962ZM13.7121 11.5337C13.3765 12.542 12.7442 13.4042 11.914 13.9962L12.4946 14.8104C13.503 14.0913 14.2607 13.0519 14.6609 11.8495L13.7121 11.5337ZM25.0161 8.55274V6.4446H24.0161V8.55274H25.0161ZM26.5117 8.05274H24.5161V9.05274H26.5117V8.05274ZM27.2201 8.3601C27.0371 8.16683 26.783 8.05274 26.5117 8.05274V9.05274C26.5062 9.05274 26.5015 9.05154 26.4981 9.05007C26.4948 9.04863 26.4936 9.04728 26.4939 9.04755L27.2201 8.3601ZM27.5 9.06857C27.5 8.80774 27.4022 8.55244 27.2201 8.3601L26.4939 9.04755C26.4942 9.0479 26.4958 9.04974 26.4973 9.05369C26.4989 9.05764 26.5 9.06274 26.5 9.06857H27.5ZM27.5 10.8426V9.06857H26.5V10.8426H27.5ZM27.22 11.5509C27.4019 11.3587 27.4998 11.1037 27.5 10.843L26.5 10.8422C26.5 10.8481 26.4989 10.8532 26.4973 10.8572C26.4957 10.8612 26.4941 10.8631 26.4937 10.8635L27.22 11.5509ZM26.5122 11.8584C26.7832 11.8582 27.0372 11.7441 27.22 11.5509L26.4937 10.8635C26.4935 10.8638 26.4946 10.8625 26.4979 10.8611C26.5011 10.8596 26.5058 10.8584 26.5113 10.8584L26.5122 11.8584ZM24.5161 11.8584H26.5117V10.8584H24.5161V11.8584ZM25.0161 13.4661V11.3584H24.0161V13.4661H25.0161ZM24.7363 14.1746C24.9183 13.9822 25.0161 13.7269 25.0161 13.4661H24.0161C24.0161 13.4719 24.015 13.477 24.0135 13.481C24.0119 13.4849 24.0104 13.4868 24.01 13.4871L24.7363 14.1746ZM24.0279 14.4819C24.2991 14.4819 24.5533 14.3679 24.7363 14.1746L24.01 13.4871C24.0098 13.4874 24.011 13.486 24.0143 13.4846C24.0176 13.4831 24.0224 13.4819 24.0279 13.4819V14.4819ZM22.3447 14.4819H24.0279V13.4819H22.3447V14.4819ZM21.6363 14.1746C21.8192 14.3679 22.0734 14.4819 22.3447 14.4819V13.4819C22.3502 13.4819 22.3549 13.4831 22.3583 13.4846C22.3616 13.486 22.3628 13.4874 22.3625 13.4871L21.6363 14.1746ZM21.3564 13.4661C21.3564 13.7269 21.4542 13.9822 21.6363 14.1746L22.3625 13.4871C22.3622 13.4868 22.3606 13.4849 22.3591 13.481C22.3575 13.477 22.3564 13.4719 22.3564 13.4661H21.3564ZM21.3564 11.3584V13.4661H22.3564V11.3584H21.3564ZM19.8634 11.8584H21.8564V10.8584H19.8634V11.8584ZM19.155 11.5513C19.3381 11.7444 19.5922 11.8584 19.8634 11.8584V10.8584C19.8689 10.8584 19.8735 10.8596 19.8768 10.8611C19.8801 10.8625 19.8813 10.8638 19.881 10.8635L19.155 11.5513ZM18.8747 10.843C18.8749 11.1038 18.9729 11.359 19.155 11.5513L19.881 10.8635C19.8806 10.8631 19.879 10.8612 19.8774 10.8572C19.8758 10.8532 19.8747 10.8481 19.8747 10.8422L18.8747 10.843ZM18.8747 9.06857V10.8426H19.8747V9.06857H18.8747ZM18.9472 8.68661C18.8991 8.8084 18.8747 8.93815 18.8747 9.06858L19.8747 9.06855C19.8747 9.06273 19.8758 9.05758 19.8774 9.05361L18.9472 8.68661ZM19.1577 8.35687C19.0663 8.45249 18.9952 8.56479 18.9472 8.68661L19.8774 9.05361C19.879 9.04966 19.8806 9.04782 19.8808 9.04752L19.1577 8.35687ZM19.4819 8.13125C19.359 8.18402 19.249 8.26119 19.1576 8.35688L19.8809 9.04751C19.8811 9.04728 19.8798 9.04866 19.8764 9.05012L19.4819 8.13125ZM19.872 8.05277C19.7375 8.0515 19.6048 8.07845 19.4819 8.13125L19.8764 9.05013C19.8729 9.05162 19.8681 9.05277 19.8626 9.05272L19.872 8.05277ZM21.8603 8.05274H19.8673V9.05274H21.8603V8.05274ZM21.3603 6.4446V8.55274H22.3603V6.4446H21.3603ZM21.432 6.06468C21.3844 6.18588 21.3603 6.3149 21.3603 6.4446H22.3603C22.3603 6.43882 22.3614 6.43369 22.363 6.42972L21.432 6.06468ZM21.6402 5.73613C21.5498 5.83159 21.4795 5.94345 21.432 6.06468L22.363 6.42971C22.3645 6.42578 22.3661 6.42392 22.3664 6.42358L21.6402 5.73613ZM21.9613 5.50997C21.8395 5.56328 21.7306 5.64061 21.6402 5.73613L22.3664 6.42358C22.3667 6.4233 22.3655 6.42464 22.3622 6.4261L21.9613 5.50997ZM22.3486 5.42877C22.2149 5.42877 22.0832 5.45663 21.9613 5.50997L22.3622 6.4261C22.3587 6.4276 22.354 6.42877 22.3486 6.42877V5.42877ZM24.0279 5.42877H22.3486V6.42877H24.0279V5.42877ZM24.7362 5.73613C24.5533 5.54285 24.2991 5.42877 24.0279 5.42877V6.42877C24.0224 6.42877 24.0176 6.42757 24.0143 6.4261C24.011 6.42466 24.0098 6.42331 24.01 6.42358L24.7362 5.73613ZM25.0161 6.4446C25.0161 6.18377 24.9183 5.92847 24.7362 5.73613L24.01 6.42358C24.0104 6.42393 24.0119 6.42577 24.0135 6.42972C24.015 6.43367 24.0161 6.43877 24.0161 6.4446H25.0161Z" fill="#C1C1C1"/>
</svg>
