<svg width="220" height="35" viewBox="0 0 220 35" fill="none" xmlns="http://www.w3.org/2000/svg">
<path d="M0 2.02308H9.57735L14.4397 17.3686L19.5967 2.02308H28.8794V25.0414H22.8383L22.9856 7.33501L17.0919 25.0414H11.4928L5.89376 7.33501L6.0411 25.0414H0V2.02308Z" fill="#96C828"/>
<path d="M44.0561 25.0414V22.3855C43.4667 23.2708 42.8773 23.861 42.5826 24.1561C41.4039 25.0414 40.2251 25.4841 38.7517 25.4841C36.9836 25.4841 35.3628 25.0414 34.184 24.1561C33.3 23.4183 32.2686 22.2379 32.2686 20.1722C32.2686 18.9917 32.5632 16.6309 35.2154 15.3029C36.9836 14.4176 39.4884 14.27 41.1092 14.27C41.4039 14.27 42.73 14.27 43.9087 14.4176C43.9087 13.5323 43.614 12.942 43.172 12.3518C41.9932 11.6141 40.5198 11.4665 39.6358 11.4665C38.1623 11.4665 36.2468 11.7616 34.184 12.7945L34.0367 8.81054C35.8048 8.07278 38.015 7.63012 40.8145 7.63012C42.73 7.63012 45.0875 7.92522 46.7083 9.2532C48.7711 10.8763 49.0658 13.0896 49.0658 14.7127V21.0575C49.0658 22.0904 49.0658 23.7134 49.2131 25.0414H44.0561ZM38.1623 21.0575C38.457 21.205 38.899 21.6477 39.9304 21.6477C40.8145 21.6477 41.8459 21.3526 42.73 20.3197C43.4667 19.4344 43.614 18.4015 43.614 17.6638C42.73 17.5162 42.1406 17.5162 41.2565 17.5162C40.3725 17.5162 39.1937 17.5162 38.457 18.1064C37.7203 18.6966 37.5729 19.2868 37.5729 19.8771C37.5729 20.0246 37.7203 20.4673 38.1623 21.0575Z" fill="#96C828"/>
<path d="M56.7275 16.3358L51.4231 7.92522H58.3483L60.8531 13.0896L63.5053 7.92522H69.9884L64.6841 16.3358L70.4305 25.189H63.358L60.5584 19.8771L57.7589 25.189H51.1284L56.7275 16.3358Z" fill="#96C828"/>
<path d="M78.8288 5.12171H72.9351V0.842655H78.8288V5.12171ZM72.9351 7.92522H78.8288V25.0414H72.9351V7.92522Z" fill="#96C828"/>
<path d="M83.5439 2.02308H94.1527C95.3315 2.02308 98.131 2.17063 100.046 3.79372C101.078 4.82659 101.667 6.15458 101.667 7.92522C101.667 9.54831 101.078 10.5812 100.783 11.1714C100.046 12.2043 98.8677 12.942 97.689 13.2371C99.6045 13.5323 102.257 14.7127 102.257 18.4015C102.257 21.205 100.783 22.6806 99.7518 23.4183C97.8363 24.7463 95.0368 24.8939 93.2687 24.8939H83.5439V2.02308ZM89.7324 11.1714H91.5005C92.3846 11.1714 93.7107 11.1714 94.5948 10.5812C95.3315 10.1385 95.4788 9.54831 95.4788 8.81054C95.4788 8.22033 95.3315 7.63011 94.8894 7.18745C94.4474 6.74479 93.5633 6.44968 91.9426 6.44968H89.8797V11.1714H89.7324ZM89.7324 20.7624H91.7952C92.8266 20.7624 94.3001 20.6148 95.0368 20.0246C95.9209 19.4344 96.0682 18.6966 96.0682 18.1064C96.0682 17.0735 95.6262 16.1882 94.5948 15.7456C94.3001 15.598 93.416 15.3029 91.5005 15.3029H89.5851V20.7624H89.7324Z" fill="white"/>
<path d="M121.264 9.69585C122.59 10.7287 124.358 12.942 124.358 16.6309C124.358 20.3197 122.59 22.3855 121.264 23.5659C119.054 25.3365 116.254 25.6316 114.486 25.6316C112.718 25.6316 109.919 25.3365 107.708 23.5659C106.382 22.533 104.614 20.3197 104.614 16.6309C104.614 12.942 106.382 10.8763 107.708 9.69585C109.329 8.36787 111.687 7.63011 114.486 7.63011C117.286 7.48255 119.643 8.36787 121.264 9.69585ZM111.834 12.7945C110.803 13.9749 110.655 15.4504 110.655 16.4833C110.655 17.6637 110.803 19.1393 111.834 20.1721C112.423 20.9099 113.308 21.3526 114.486 21.3526C115.665 21.3526 116.549 20.9099 117.138 20.1721C118.17 18.9917 118.317 17.5162 118.317 16.4833C118.317 15.3029 118.17 13.8274 117.138 12.7945C116.549 12.0567 115.665 11.6141 114.486 11.6141C113.308 11.6141 112.423 12.0567 111.834 12.7945Z" fill="white"/>
<path d="M142.924 9.69585C144.25 10.7287 146.018 12.942 146.018 16.6309C146.018 20.3197 144.25 22.3855 142.924 23.5659C140.714 25.3365 137.914 25.6316 136.146 25.6316C134.378 25.6316 131.578 25.3365 129.368 23.5659C128.042 22.533 126.274 20.3197 126.274 16.6309C126.274 12.942 128.042 10.8763 129.368 9.69585C130.989 8.36787 133.346 7.63011 136.146 7.63011C138.798 7.48255 141.156 8.36787 142.924 9.69585ZM133.494 12.7945C132.462 13.9749 132.315 15.4504 132.315 16.4833C132.315 17.6637 132.462 19.1393 133.494 20.1721C134.083 20.9099 134.967 21.3526 136.146 21.3526C137.325 21.3526 138.209 20.9099 138.798 20.1721C139.83 18.9917 139.977 17.5162 139.977 16.4833C139.977 15.3029 139.83 13.8274 138.798 12.7945C138.209 12.0567 137.325 11.6141 136.146 11.6141C134.967 11.6141 134.083 12.0567 133.494 12.7945Z" fill="white"/>
<path d="M148.965 0.399992H154.859V15.1553L159.721 7.92522H166.204L160.31 15.7456L166.793 25.0414H159.574L154.859 16.4833V25.0414H148.965V0.399992Z" fill="white"/>
<path d="M175.634 5.12171H169.74V0.842655H175.634V5.12171ZM169.74 7.92522H175.634V25.0414H169.74V7.92522Z" fill="white"/>
<path d="M179.907 7.92522H185.358V11.0238C185.948 9.69586 186.979 8.81054 188.011 8.22033C189.484 7.48256 190.958 7.48256 191.547 7.48256C193.462 7.48256 195.083 7.92522 196.262 9.2532C196.999 9.99097 198.03 11.6141 198.03 14.4176V25.0414H192.136V16.7784C192.136 15.8931 192.136 13.9749 191.105 13.0896C190.515 12.6469 189.926 12.4994 189.484 12.4994C188.747 12.4994 187.716 12.6469 186.979 13.5323C185.948 14.7127 185.8 16.6309 185.8 17.8113V25.0414H179.907V7.92522Z" fill="white"/>
<path d="M219.984 23.1232C219.984 25.0414 219.837 27.9925 217.774 30.0582C215.711 32.124 212.028 32.4191 210.26 32.4191C207.608 32.4191 205.397 32.124 203.187 31.3862L203.482 26.6645C205.545 27.8449 207.608 28.14 209.228 28.14C210.407 28.14 212.028 27.9925 213.207 26.8121C214.238 25.6316 214.385 24.3037 214.385 23.1232V22.2379C213.943 22.9757 213.207 23.7134 212.175 24.3037C210.996 24.8939 209.67 25.189 208.639 25.189C205.692 25.189 203.924 23.861 203.04 22.6806C202.008 21.5001 200.977 19.5819 200.977 16.3358C200.977 12.942 202.156 10.8763 203.187 9.69586C204.071 8.81054 205.692 7.63012 208.344 7.63012C210.112 7.63012 211.291 8.22033 212.028 8.66299C212.765 9.10565 213.649 9.99097 214.385 11.1714V8.07278H219.69V23.1232H219.984ZM208.05 19.2868C208.786 20.1722 209.67 20.4673 210.407 20.4673C210.996 20.4673 212.028 20.3197 213.059 19.2868C213.943 18.254 214.238 17.0735 214.238 16.0407C214.238 14.5651 213.649 13.6798 213.354 13.2371C212.47 12.0567 211.291 11.9092 210.554 11.9092C209.376 11.9092 208.639 12.3518 208.197 12.942C207.46 13.6798 207.166 15.0078 207.166 16.1882C207.166 17.3686 207.46 18.5491 208.05 19.2868Z" fill="white"/>
<path d="M130.989 29.1729C130.989 30.5009 130.547 31.8289 129.662 32.7142C128.631 33.5995 127.01 34.3373 124.8 34.3373C123.621 34.3373 121.411 34.1897 119.938 32.7142C118.906 31.8289 118.464 30.6485 118.464 29.1729L121.559 28.7303C121.706 29.1729 121.853 29.7631 122.295 30.2058C122.885 30.796 124.063 30.9436 124.8 30.9436C125.537 30.9436 126.716 30.796 127.305 30.2058C127.6 29.9107 127.894 29.3205 128.042 28.7303L130.989 29.1729Z" fill="white"/>
</svg>
