<svg width="115" height="21" viewBox="0 0 115 21" fill="none" xmlns="http://www.w3.org/2000/svg">
<path d="M5.80017 0.5V6.8H4.50018V1.6H2.00018V6.8H0.700195V0.5H5.80017V0.5Z" fill="white"/>
<path d="M9.80038 0.5C12.1004 0.5 12.2004 2.1 12.2004 2.5C12.2004 3.3 11.6004 4.5 10.0004 4.5H9.20041V6.9H7.90039V0.6H9.80038V0.5ZM9.80038 3.5C10.6004 3.5 10.9004 3 10.9004 2.5C10.9004 2 10.6004 1.6 9.80038 1.6H9.20041V3.5H9.80038Z" fill="white"/>
<path d="M20.0003 3.7C20.0003 6 18.5003 6.9 16.9003 6.9C15.3003 6.9 13.8003 6 13.8003 3.7C13.8003 1.4 15.3003 0.5 16.9003 0.5C18.5003 0.5 20.0003 1.4 20.0003 3.7ZM15.2003 3.7C15.2003 5.8 16.5003 6 16.9003 6C17.4003 6 18.6003 5.8 18.6003 3.7C18.6003 1.6 17.3003 1.4 16.9003 1.4C16.4003 1.3 15.2003 1.5 15.2003 3.7Z" fill="white"/>
<path d="M25.7003 0.5V1.6H23.1003V6.8H21.8003V0.5H25.7003V0.5Z" fill="white"/>
<path d="M29.2003 0.5C31.5003 0.5 31.6003 2.1 31.6003 2.5C31.6003 3.3 31.0003 4.5 29.4003 4.5H28.6003V6.9H27.3003V0.6H29.2003V0.5ZM29.2003 3.5C30.0003 3.5 30.3003 3 30.3003 2.5C30.3003 2 30.0003 1.6 29.2003 1.6H28.6003V3.5H29.2003Z" fill="white"/>
<path d="M36.4 0.5L38.9 6.8H37.5L37 5.4H34.4L33.9 6.8H32.5L35 0.5H36.4V0.5ZM36.5 4.4L35.6 1.8L34.7 4.4H36.5Z" fill="white"/>
<path d="M43.6 6.8L42.1 2.3L41.8 1.4V2.4V6.8H40.5V0.5H42.7L44 4.1L44.3 5.2L44.6 4.1L45.9 0.5H48.1V6.8H46.8V2.4V1.4L46.5 2.3L45 6.8H43.6V6.8Z" fill="white"/>
<path d="M53.2001 6.8L51.7001 2.3L51.4001 1.4V2.4V6.8H50.1001V0.5H52.3001L53.6001 4.1L53.9001 5.2L54.2001 4.1L55.5001 0.5H57.7001V6.8H56.4001V2.4V1.4L56.1001 2.3L54.6001 6.8H53.2001V6.8Z" fill="white"/>
<path d="M60.9001 0.5V3H63.4001V0.5H64.7001V6.8H63.4001V4.1H60.9001V6.8H59.6001V0.5H60.9001V0.5Z" fill="white"/>
<path d="M68.2 2.9H69.1C71.3 2.9 71.4 4.4 71.4 4.8C71.4 5.8 70.9 6.8 69.1 6.8H67V0.5H68.3V2.9H68.2ZM68.2 5.8H69C69.6 5.8 70 5.4 70 4.8C70 4.4 69.8 3.8 68.9 3.8H68.2V5.8ZM73.5 0.5V6.8H72.2V0.5H73.5V0.5Z" fill="white"/>
<path d="M79.5003 0.500025V1.60003H77.0003V3.00002H79.3003V4.00002H77.0003V5.60002H79.5003V6.70003H75.8003V0.400024H79.5003V0.500025Z" fill="white"/>
<path d="M2.60019 13.3C4.90019 13.3 5.00018 14.9 5.00018 15.3C5.00018 16.1 4.40017 17.3 2.80017 17.3H2.00018V19.7001H0.700195V13.4001H2.60019V13.3ZM2.60019 16.2001C3.40019 16.2001 3.7002 15.7001 3.7002 15.2001C3.7002 14.7001 3.40019 14.3 2.60019 14.3H2.00018V16.2001H2.60019Z" fill="white"/>
<path d="M10.5003 13.3001V14.4001H8.00031V15.8001H10.3003V16.8001H8.00031V18.4001H10.5003V19.5001H6.80029V13.2001H10.5003V13.3001Z" fill="white"/>
<path d="M13.8 13.3V18.5H15.9V13.3H17.2V18.5H19.3V13.3H20.6V19.6H12.5V13.3H13.8Z" fill="white"/>
<path d="M26.5003 13.3001V14.4001H24.0003V15.8001H26.3003V16.8001H24.0003V18.4001H26.5003V19.5001H22.8003V13.2001H26.5003V13.3001Z" fill="white"/>
<path d="M29.8 13.3V15.8H32.3V13.3H33.6V19.6H32.3V16.9001H29.8V19.6H28.5V13.3H29.8Z" fill="white"/>
<path d="M37.0002 13.3V16.5V18L37.4002 17.1L39.6002 13.3H41.1002V19.6H39.8002V16.4001V14.9001L39.4002 15.9001L37.2002 19.7001H35.7002V13.4001H37.0002V13.3Z" fill="white"/>
<path d="M47.7 19.6H46.4V17.3H45.6L44.4 19.6H43L44.5 17C44 16.8 43.3 16.4 43.3 15.2C43.3 13.2 45.3 13.3 45.8 13.3H47.8V19.6H47.7ZM46.5 14.3H45.8C44.8 14.3 44.6 14.9 44.6 15.3C44.6 16.3 45.6 16.3 45.8 16.3H46.5V14.3Z" fill="white"/>
<path d="M53.1003 18.5C53.7003 17.4 53.9003 16.5 53.9003 15.3V13.3H58.0003V18.5H58.7003V20.9001H57.4003V19.6H53.6003V20.9001H52.3003V18.5H53.1003ZM55.1003 14.4001V15.3C55.1003 16.5 55.0003 17.4 54.5003 18.5H56.8003V14.4001H55.1003Z" fill="white"/>
<path d="M65.5001 13.3V19.6H64.2001V14.4001H62.5001V15.7001C62.5001 17.8001 62.5001 19.7001 60.7001 19.7001C60.5001 19.7001 60.3001 19.7 60.1001 19.6L60.2001 18.6C60.3001 18.6 60.4001 18.6 60.5001 18.6C61.5001 18.6 61.4001 16.8 61.4001 15.3V13.3H65.5001V13.3Z" fill="white"/>
<path d="M72.1003 19.6H70.8003V17.3H70.0003L68.8003 19.6H67.3003L68.8003 17C68.3003 16.8 67.6003 16.4 67.6003 15.2C67.6003 13.2 69.6003 13.3 70.1003 13.3H72.1003V19.6ZM70.8003 14.3H70.1003C69.1003 14.3 68.9003 14.9 68.9003 15.3C68.9003 16.3 69.9003 16.3 70.1003 16.3H70.8003V14.3Z" fill="white"/>
<path d="M83.1004 16.4001C83.1004 18.7001 81.6004 19.6001 80.0004 19.6001C78.4004 19.6001 76.9004 18.7001 76.9004 16.4001C76.9004 14.1001 78.4004 13.2001 80.0004 13.2001C81.6004 13.2001 83.1004 14.2001 83.1004 16.4001ZM78.3004 16.4001C78.3004 18.5001 79.6004 18.7001 80.0004 18.7001C80.4004 18.7001 81.7004 18.5001 81.7004 16.4001C81.7004 14.3001 80.4004 14.1001 80.0004 14.1001C79.6004 14.1001 78.3004 14.3001 78.3004 16.4001Z" fill="white"/>
<path d="M89.3004 13.3V14.4001H87.5004V19.6H86.2004V14.4001H84.4004V13.3H89.3004Z" fill="white"/>
<path d="M94.7 13.3001V14.4001H92.2V15.8001H94.5V16.8001H92.2V18.4001H94.7V19.5001H91V13.2001H94.7V13.3001Z" fill="white"/>
<path d="M101.7 13.3V19.6H100.4V14.4001H98.7003V15.7001C98.7003 17.8001 98.7003 19.7001 96.9003 19.7001C96.7003 19.7001 96.5003 19.7 96.3003 19.6L96.4003 18.6C96.5003 18.6 96.6003 18.6 96.7003 18.6C97.7003 18.6 97.6003 16.8 97.6003 15.3V13.3H101.7V13.3Z" fill="white"/>
<path d="M107.6 13.3001V14.4001H105.1V15.8001H107.4V16.8001H105.1V18.4001H107.6V19.5001H103.9V13.2001H107.6V13.3001Z" fill="white"/>
<path d="M110.8 13.3V16.5V18L111.2 17.1L113.4 13.3H114.9V19.6H113.6V16.4V14.9L113.2 15.9L111 19.7H109.5V13.4H110.8V13.3ZM113.9 11.8C113.5 12.7 112.8 12.8 112.2 12.8C111.7 12.8 110.9 12.7 110.5 11.8L111.2 11.5C111.4 12.1 112 12.1 112.2 12.1C112.4 12.1 113 12.1 113.2 11.5L113.9 11.8Z" fill="white"/>
</svg>
