<svg width="246" height="38" viewBox="0 0 246 38" fill="none" xmlns="http://www.w3.org/2000/svg">
<path d="M0.300049 2H11L16.4001 19H16.5L22.2001 2H32.5V27.6H25.8L26 7.9H25.9001L19.4001 27.6H13.1L6.90005 7.9H6.80005L7.00005 27.6H0.300049V2Z" fill="#8C8C8C"/>
<path d="M49.3 27.6L49.2 24.6H49.1C48.5 25.6 47.8 26.2 47.4 26.6C46.1 27.7 44.8 28 43.1 28C41.2 28 39.4 27.5 38.1 26.5C37.1 25.7 36 24.3 36 22.1C36 20.8 36.4 18.2 39.2 16.7C41.2 15.7 44 15.5 45.8 15.5C46.1 15.5 47.6 15.5 48.9 15.7C48.9 14.8 48.6 14 48.1 13.5C47.1 12.5 45.4 12.5 44.5 12.5C42.8 12.5 40.8 12.8 38.5 13.9L38.4 9.4C40.4 8.6 42.8 8 45.9 8C48.1 8 50.6 8.4 52.4 9.8C54.7 11.6 55 14 55 15.9V23C55 24.2 55 25.9 55.2 27.5H49.3V27.6ZM42.9 23C43.2 23.2 43.8 23.6 44.8 23.6C45.7 23.6 47 23.3 47.9 22.1C48.7 21.1 48.9 19.9 48.9 19.1C47.9 19 47.2 19 46.3 19C45.2 19 44 19 43.2 19.6C42.3 20.2 42.1 21 42.1 21.5C42.2 21.9 42.3 22.5 42.9 23Z" fill="#8C8C8C"/>
<path d="M63.6 17.9L57.6 8.5H65.4L68.2 14.2L71.2 8.5H78.4L72.4 17.8L78.8 27.6H70.9L67.7 21.7L64.6 27.6H57.2L63.6 17.9Z" fill="#8C8C8C"/>
<path d="M88.2001 5.39997H81.6001V0.599976H88.2001V5.39997ZM81.6001 8.49998H88.2001V27.6H81.6001V8.49998Z" fill="#8C8C8C"/>
<path d="M93.3999 2H105.1C106.4 2 109.5 2.1 111.6 4C112.8 5.1 113.4 6.6 113.4 8.5C113.4 10.3 112.8 11.4 112.3 12.1C111.5 13.2 110.1 14 108.9 14.4V14.5C111 14.8 114.1 16.1 114.1 20.3C114.1 23.4 112.5 25.1 111.4 25.9C109.3 27.4 106.1 27.6 104.2 27.6H93.3999V2V2ZM100.2 12.1H102.1C103.1 12.1 104.6 12.1 105.6 11.4C106.4 10.9 106.7 10.2 106.7 9.4C106.7 8.7 106.5 8.1 106 7.6C105.5 7.1 104.5 6.8 102.7 6.8H100.3V12.1H100.2ZM100.2 22.7H102.5C103.6 22.7 105.2 22.6 106.2 21.9C107.2 21.2 107.3 20.4 107.3 19.7C107.3 18.5 106.9 17.6 105.7 17.1C105.3 17 104.5 16.6 102.3 16.6H100.2V22.7Z" fill="#646464"/>
<path d="M135.4 10.4C136.9 11.6 138.9 13.9 138.9 18C138.9 22.1 136.9 24.4 135.4 25.6C132.9 27.6 129.8 27.9 127.8 27.9C125.8 27.9 122.8 27.6 120.2 25.6C118.7 24.4 116.7 22.1 116.7 18C116.7 13.9 118.7 11.6 120.2 10.4C122.1 8.89998 124.7 8.09998 127.8 8.09998C130.9 8.09998 133.5 8.99998 135.4 10.4ZM124.8 13.9C123.7 15.1 123.5 16.8 123.5 18C123.5 19.2 123.7 20.9 124.8 22.1C125.5 22.9 126.5 23.3 127.8 23.3C129.1 23.3 130 22.9 130.8 22.1C131.9 20.9 132.1 19.2 132.1 18C132.1 16.8 131.9 15.1 130.8 13.9C130.1 13.1 129.1 12.7 127.8 12.7C126.5 12.7 125.6 13.1 124.8 13.9Z" fill="#646464"/>
<path d="M159.5 10.4C161 11.6 163 13.9 163 18C163 22.1 161 24.4 159.5 25.6C157 27.6 153.9 27.9 151.9 27.9C149.9 27.9 146.9 27.6 144.3 25.6C142.8 24.4 140.8 22.1 140.8 18C140.8 13.9 142.8 11.6 144.3 10.4C146.2 8.89998 148.8 8.09998 151.9 8.09998C155 8.09998 157.6 8.99998 159.5 10.4ZM148.9 13.9C147.8 15.1 147.6 16.8 147.6 18C147.6 19.2 147.8 20.9 148.9 22.1C149.6 22.9 150.6 23.3 151.9 23.3C153.2 23.3 154.1 22.9 154.9 22.1C156 20.9 156.2 19.2 156.2 18C156.2 16.8 156 15.1 154.9 13.9C154.2 13.1 153.2 12.7 151.9 12.7C150.6 12.7 149.7 13.1 148.9 13.9Z" fill="#646464"/>
<path d="M166.2 0.0999756H172.8V16.5H172.9L178.4 8.49998H185.6L179 17.2L186.2 27.5H178.2L172.9 18.1H172.8V27.5H166.2V0.0999756V0.0999756Z" fill="#646464"/>
<path d="M195.9 5.39997H189.3V0.599976H195.9V5.39997ZM189.3 8.49998H195.9V27.6H189.3V8.49998Z" fill="#646464"/>
<path d="M200.7 8.5H206.7V12H206.8C207.5 10.5 208.6 9.5 209.8 8.9C211.4 8.1 213.1 8 213.8 8C215.9 8 217.7 8.5 219 9.9C219.9 10.8 221 12.6 221 15.6V27.5H214.4V18.3C214.4 17.2 214.3 15.2 213.2 14.2C212.6 13.7 212 13.5 211.3 13.5C210.5 13.5 209.4 13.6 208.5 14.7C207.4 16 207.3 18.2 207.3 19.5V27.5H200.7V8.5Z" fill="#646464"/>
<path d="M245.3 25.2999C245.3 27.4999 245.1 30.7999 242.8 33.0999C240.4 35.3999 236.5 35.6999 234.4 35.6999C231.4 35.6999 228.9 35.2999 226.6 34.4999L226.9 29.2999C229.3 30.4999 231.5 30.8999 233.3 30.8999C234.6 30.8999 236.5 30.6999 237.8 29.3999C239 28.1999 239.2 26.4999 239.2 25.3999V24.3999H239.1C238.6 25.2999 237.8 25.9999 236.6 26.6999C235.2 27.3999 233.9 27.6999 232.6 27.6999C229.4 27.6999 227.4 26.1999 226.4 24.9999C225.3 23.6999 224.2 21.4999 224.2 17.8999C224.2 14.0999 225.6 11.7999 226.7 10.5999C227.7 9.49993 229.6 8.29993 232.5 8.29993C234.4 8.29993 235.8 8.89993 236.6 9.39993C237.5 9.89993 238.5 10.8999 239.2 12.1999H239.3V8.79993H245.3V25.2999V25.2999ZM232 21.1999C232.8 22.1999 233.8 22.4999 234.7 22.4999C235.4 22.4999 236.6 22.3999 237.6 21.1999C238.7 20.0999 238.9 18.6999 238.9 17.6999C238.9 16.0999 238.3 15.0999 237.9 14.5999C236.9 13.3999 235.5 13.1999 234.8 13.1999C233.5 13.1999 232.7 13.6999 232.2 14.2999C231.4 15.1999 231 16.5999 231 17.9999C231 19.0999 231.3 20.2999 232 21.1999Z" fill="#646464"/>
<path d="M146.1 32.0999C146.1 33.5999 145.6 35 144.6 36C143.5 37 141.7 37.7999 139.1 37.7999C137.8 37.7999 135.4 37.7 133.7 36C132.6 35 132.1 33.6999 132.1 32.0999L135.5 31.7C135.6 32.2 135.9 32.8999 136.3 33.2999C136.9 33.8999 138.2 34.0999 139.1 34.0999C140 34.0999 141.3 33.8999 141.9 33.2999C142.3 32.8999 142.6 32.3 142.7 31.7L146.1 32.0999Z" fill="#646464"/>
</svg>
