<svg width="62" height="69" viewBox="0 0 62 69" fill="none" xmlns="http://www.w3.org/2000/svg">
<path fill-rule="evenodd" clip-rule="evenodd" d="M6 25C9.31371 25 12 22.3137 12 19C12 15.6863 9.31371 13 6 13C2.68629 13 0 15.6863 0 19C0 22.3137 2.68629 25 6 25ZM6 23C8.20914 23 10 21.2091 10 19C10 16.7909 8.20914 15 6 15C3.79086 15 2 16.7909 2 19C2 21.2091 3.79086 23 6 23Z" fill="#C4C4C4"/>
<path fill-rule="evenodd" clip-rule="evenodd" d="M55 25C58.3137 25 61 22.3137 61 19C61 15.6863 58.3137 13 55 13C51.6863 13 49 15.6863 49 19C49 22.3137 51.6863 25 55 25ZM55 23C57.2091 23 59 21.2091 59 19C59 16.7909 57.2091 15 55 15C52.7909 15 51 16.7909 51 19C51 21.2091 52.7909 23 55 23Z" fill="#C4C4C4"/>
<path fill-rule="evenodd" clip-rule="evenodd" d="M6 53C9.31371 53 12 50.3137 12 47C12 43.6863 9.31371 41 6 41C2.68629 41 0 43.6863 0 47C0 50.3137 2.68629 53 6 53ZM6 51C8.20914 51 10 49.2091 10 47C10 44.7909 8.20914 43 6 43C3.79086 43 2 44.7909 2 47C2 49.2091 3.79086 51 6 51Z" fill="#C4C4C4"/>
<path fill-rule="evenodd" clip-rule="evenodd" d="M31 12C34.3137 12 37 9.31371 37 6C37 2.68629 34.3137 0 31 0C27.6863 0 25 2.68629 25 6C25 9.31371 27.6863 12 31 12ZM31 10C33.2091 10 35 8.20914 35 6C35 3.79086 33.2091 2 31 2C28.7909 2 27 3.79086 27 6C27 8.20914 28.7909 10 31 10Z" fill="#C4C4C4"/>
<path fill-rule="evenodd" clip-rule="evenodd" d="M31 34C34.3137 34 37 31.3137 37 28C37 24.6863 34.3137 22 31 22C27.6863 22 25 24.6863 25 28C25 31.3137 27.6863 34 31 34ZM31 32C33.2091 32 35 30.2091 35 28C35 25.7909 33.2091 24 31 24C28.7909 24 27 25.7909 27 28C27 30.2091 28.7909 32 31 32Z" fill="#C4C4C4"/>
<path fill-rule="evenodd" clip-rule="evenodd" d="M31 69C34.3137 69 37 66.3137 37 63C37 59.6863 34.3137 57 31 57C27.6863 57 25 59.6863 25 63C25 66.3137 27.6863 69 31 69ZM31 67C33.2091 67 35 65.2091 35 63C35 60.7909 33.2091 59 31 59C28.7909 59 27 60.7909 27 63C27 65.2091 28.7909 67 31 67Z" fill="#C4C4C4"/>
<path fill-rule="evenodd" clip-rule="evenodd" d="M56 53C59.3137 53 62 50.3137 62 47C62 43.6863 59.3137 41 56 41C52.6863 41 50 43.6863 50 47C50 50.3137 52.6863 53 56 53ZM56 51C58.2091 51 60 49.2091 60 47C60 44.7909 58.2091 43 56 43C53.7909 43 52 44.7909 52 47C52 49.2091 53.7909 51 56 51Z" fill="#C4C4C4"/>
<path fill-rule="evenodd" clip-rule="evenodd" d="M35.9998 6.00015C35.9998 6.61059 35.8904 7.19547 35.6902 7.73627L50.6802 16.4805C50.9979 15.937 51.4153 15.4589 51.9072 15.0711L35.9985 5.88624C35.9994 5.92411 35.9998 5.96208 35.9998 6.00015ZM55.9998 42.0002C55.6573 42.0002 55.3229 42.0347 54.9998 42.1003L54.9998 24.0002C55.7035 24.0002 56.3732 23.8549 56.9806 23.5926V42.0964C56.6634 42.0333 56.3355 42.0002 55.9998 42.0002ZM51.4479 49.0721C51.7069 49.6401 52.069 50.1511 52.5102 50.5812L35.3308 60.4997C35.0311 59.9818 34.6412 59.5226 34.1825 59.1436L51.4479 49.0721ZM9.48937 50.5812L26.6689 60.4997C26.9685 59.9818 27.3584 59.5226 27.8171 59.1436L10.5517 49.0721C10.2928 49.6401 9.93067 50.1511 9.48937 50.5812ZM6.99981 42.1003V23.9002C6.6767 23.9658 6.34228 24.0002 5.99982 24.0002C5.66414 24.0002 5.33619 23.9672 5.01904 23.9041V42.0964C5.33619 42.0333 5.66414 42.0002 5.99982 42.0002C6.34228 42.0002 6.6767 42.0347 6.99981 42.1003ZM10.5517 16.9283L26.3095 7.73626C26.1092 7.19546 25.9998 6.61058 25.9998 6.00015C25.9998 5.96208 26.0002 5.9241 26.0011 5.88623L9.48935 15.4193C9.93065 15.8494 10.2927 16.3604 10.5517 16.9283Z" fill="#C4C4C4"/>
<path fill-rule="evenodd" clip-rule="evenodd" d="M20.0448 44C20.0152 43.6706 20 43.3371 20 43C20 36.9249 24.9249 32 31 32C37.0751 32 42 36.9249 42 43C42 43.3371 41.9848 43.6706 41.9552 44H39.9451C39.9814 43.6717 40 43.338 40 43C40 38.0294 35.9706 34 31 34C26.0294 34 22 38.0294 22 43C22 43.338 22.0186 43.6717 22.0549 44H20.0448Z" fill="#C4C4C4"/>
<path fill-rule="evenodd" clip-rule="evenodd" d="M23.1489 29.5447L12.6333 23.4735C13.0055 22.9227 13.3108 22.3231 13.5378 21.6863L23.0421 27.1736C23.0142 27.4453 23 27.721 23 28C23 28.5285 23.0512 29.0449 23.1489 29.5447ZM48.5088 44.1862L43.9184 41.5359C43.816 40.6223 43.6189 39.7373 43.3372 38.891L49.4427 42.416C49.0614 42.9603 48.7463 43.5542 48.5088 44.1862Z" fill="#C4C4C4"/>
<path fill-rule="evenodd" clip-rule="evenodd" d="M47.9654 22.8133C47.871 22.6394 47.7828 22.4616 47.7011 22.2803L38.9714 27.3204C38.9903 27.5444 38.9999 27.7711 38.9999 28C38.9999 28.5906 38.9359 29.1663 38.8144 29.7204L48.7444 23.9874C48.7444 23.9874 48.7444 23.9873 48.7444 23.9873C48.4518 23.6209 48.1908 23.2282 47.9654 22.8133ZM18.064 41.7007C18.1537 40.7971 18.3359 39.9208 18.6009 39.0813L12.6333 42.5267C13.0055 43.0775 13.3108 43.6771 13.5378 44.3139L18.064 41.7007Z" fill="#C4C4C4"/>
<path fill-rule="evenodd" clip-rule="evenodd" d="M30 14H31H32V20.0619C31.6724 20.021 31.3387 20 31 20C30.6613 20 30.3276 20.021 30 20.0619V14ZM30 46V55H31H32V46H30Z" fill="#C4C4C4"/>
</svg>
