<svg width="32" height="32" viewBox="0 0 32 32" fill="none" xmlns="http://www.w3.org/2000/svg">
<path d="M16 32C24.8366 32 32 24.8366 32 16C32 7.16344 24.8366 0 16 0C7.16344 0 0 7.16344 0 16C0 24.8366 7.16344 32 16 32Z" fill="white"/>
<path d="M25.9 8.59999C25.1 9.09999 24.2 9.39999 23.3 9.59999C22.5 8.79999 21.5 8.29999 20.3 8.29999C18 8.29999 16.2 10.1 16.2 12.4C16.2 12.7 16.2 13 16.3 13.3C12.9 13.1 9.80001 11.5 7.80001 8.99999C7.40001 9.59999 7.20001 10.3 7.20001 11.1C7.20001 12.5 7.90001 13.8 9.00001 14.5C8.30001 14.5 7.70001 14.3 7.10001 14C7.10001 16 8.50001 17.7 10.4 18C10.1 18.1 9.70001 18.1 9.30001 18.1C9.00001 18.1 8.80001 18.1 8.50001 18C9.00001 19.6 10.5 20.8 12.3 20.9C10.9 22 9.10001 22.7 7.20001 22.7C6.90001 22.7 6.50001 22.7 6.20001 22.6C8.00001 23.8 10.2 24.4 12.5 24.4C20.1 24.4 24.2 18.1 24.2 12.7C24.2 12.5 24.2 12.3 24.2 12.2C25 11.6 25.7 10.9 26.3 10.1C25.6 10.4 24.8 10.6 23.9 10.7C25 10.3 25.6 9.49999 25.9 8.59999Z" fill="#BDBDBD"/>
</svg>
