<svg width="18" height="18" viewBox="0 0 18 18" fill="none" xmlns="http://www.w3.org/2000/svg">
<path d="M14.3 0.400024H3.69999C1.89999 0.400024 0.399994 1.90002 0.399994 3.70002V7.20002V14.2C0.399994 16 1.89999 17.5 3.69999 17.5H14.2C16 17.5 17.5 16 17.5 14.2V7.20002V3.70002C17.6 1.90002 16.1 0.400024 14.3 0.400024ZM15.2 2.40002H15.6V2.80002V5.30002H12.7V2.40002H15.2ZM6.59999 7.20002C7.09999 6.50002 7.99999 6.00002 8.99999 6.00002C9.99999 6.00002 10.9 6.50002 11.4 7.30002C11.8 7.80002 12 8.40003 12 9.10003C12 10.8 10.6 12.1 8.99999 12.1C7.29999 12.1 5.99999 10.7 5.99999 9.10003C5.99999 8.30002 6.19999 7.70002 6.59999 7.20002ZM15.9 14.3C15.9 15.2 15.2 15.9 14.3 15.9H3.69999C2.79999 15.9 2.09999 15.2 2.09999 14.3V7.30002H4.69999C4.49999 7.80002 4.39999 8.40003 4.39999 9.10003C4.39999 11.7 6.49999 13.8 9.09999 13.8C11.7 13.8 13.8 11.7 13.8 9.10003C13.8 8.50002 13.7 7.90002 13.5 7.30002H16.1V14.3H15.9Z" fill="#D0D2D3"/>
</svg>
