<svg width="32" height="32" viewBox="0 0 32 32" fill="none" xmlns="http://www.w3.org/2000/svg">
<path d="M16 32C24.8366 32 32 24.8366 32 16C32 7.16344 24.8366 0 16 0C7.16344 0 0 7.16344 0 16C0 24.8366 7.16344 32 16 32Z" fill="white"/>
<path d="M26.9 22.3C26.9 22.2 26.8 22.2 26.8 22.1C26.4 21.4 25.6 20.5 24.5 19.4C24 18.9 23.7 18.6 23.5 18.4C23.3 18.1 23.2 17.8 23.3 17.4C23.4 17.2 23.8 16.6 24.4 15.8C24.7 15.4 25 15 25.2 14.8C26.6 13 27.2 11.8 27 11.3L26.9 11.2C26.9 11.1 26.7 11.1 26.5 11C26.3 10.9 26 10.9 25.7 11H22.2C22.1 11 22.1 11 22 11C21.9 11 21.8 11 21.8 11H21.7L21.6 11.1C21.6 11.2 21.5 11.2 21.5 11.3C21.1 12.3 20.7 13.2 20.2 14C19.9 14.5 19.6 14.9 19.4 15.3C19.2 15.7 18.9 15.9 18.8 16.1C18.6 16.3 18.5 16.4 18.3 16.5C18.2 16.6 18.1 16.6 18 16.6C17.9 16.6 17.9 16.6 17.8 16.6C17.7 16.5 17.6 16.4 17.5 16.3C17.4 16.2 17.4 16 17.4 15.8C17.4 15.6 17.4 15.4 17.4 15.3C17.4 15.2 17.4 15 17.4 14.7C17.4 14.5 17.4 14.3 17.4 14.2C17.4 13.9 17.4 13.6 17.4 13.2C17.4 12.8 17.4 12.6 17.4 12.4C17.4 12.2 17.4 12 17.4 11.7C17.4 11.5 17.4 11.3 17.4 11.2C17.4 11.1 17.3 10.9 17.3 10.8C17.2 10.7 17.2 10.6 17.1 10.5C17 10.4 16.9 10.4 16.7 10.3C16.3 10.2 15.7 10.2 15.1 10.1C13.6 10.1 12.6 10.2 12.2 10.4C12 10.5 11.9 10.6 11.7 10.8C11.6 11 11.5 11.1 11.6 11.1C12.1 11.2 12.4 11.3 12.6 11.6L12.7 11.7C12.8 11.8 12.8 12 12.9 12.3C13 12.6 13 12.9 13 13.2C13 13.8 13 14.3 13 14.7C13 15.1 12.9 15.4 12.9 15.7C12.9 15.9 12.8 16.1 12.7 16.3C12.6 16.4 12.6 16.5 12.6 16.6C12.6 16.6 12.6 16.7 12.5 16.7C12.4 16.7 12.3 16.8 12.2 16.8C12.1 16.8 12 16.7 11.8 16.6C11.6 16.5 11.5 16.3 11.3 16.1C11.1 15.9 10.9 15.6 10.7 15.3C10.5 14.9 10.3 14.5 10 14L9.8 13.7C9.7 13.5 9.5 13.1 9.3 12.7C9.1 12.3 8.9 11.9 8.7 11.5C8.6 11.3 8.5 11.2 8.4 11.1H8.3C8.3 11.1 8.2 11 8.1 11C8.2 11.1 8.1 11 8 11H4.7C4.4 11 4.1 11.1 4 11.2V11.3C4 11.3 4 11.4 4 11.5C4 11.6 4 11.7 4.1 11.8C4.6 12.9 5.1 14 5.7 15.1C6.1 16.2 6.6 17 7 17.7C7.4 18.3 7.8 18.9 8.3 19.5C8.7 20.1 9 20.4 9.2 20.6C9.3 20.8 9.5 20.9 9.5 21L9.8 21.3C10 21.5 10.3 21.7 10.6 22C11 22.3 11.4 22.5 11.8 22.8C12.3 23.1 12.8 23.3 13.4 23.4C14 23.6 14.6 23.6 15.2 23.6H16.6C16.9 23.6 17.1 23.5 17.2 23.3V23.2C17.2 23.2 17.3 23.1 17.3 23C17.3 22.9 17.3 22.8 17.3 22.7C17.3 22.4 17.3 22 17.4 21.8C17.5 21.5 17.5 21.3 17.6 21.2C17.7 21.1 17.8 20.9 17.9 20.8C18 20.7 18.1 20.6 18.1 20.6H18.2C18.4 20.5 18.6 20.6 18.9 20.8C19.2 21 19.4 21.2 19.6 21.5C19.8 21.8 20.1 22.1 20.4 22.4C20.7 22.7 21 23 21.2 23.2L21.4 23.3C21.6 23.4 21.8 23.5 22 23.6C22.3 23.7 22.5 23.7 22.7 23.7H25.8C26.1 23.7 26.3 23.7 26.5 23.5C26.7 23.4 26.8 23.3 26.8 23.2C26.8 23.1 26.8 22.9 26.8 22.8C26.9 22.5 26.9 22.4 26.9 22.3Z" fill="#BDBDBD"/>
</svg>
