<svg width="28" height="18" viewBox="0 0 28 18" fill="none" xmlns="http://www.w3.org/2000/svg">
<path d="M13.7208 16.842H15.2666C15.3988 16.8392 15.529 16.8069 15.6485 16.7473C15.768 16.6877 15.8742 16.6021 15.96 16.4961C16.093 16.2766 16.1636 16.0215 16.1632 15.761C16.1632 15.761 16.1225 13.5562 17.0989 13.2104C18.0345 12.9078 19.2549 15.3718 20.5975 16.3232C21.1142 16.6859 21.7265 16.8675 22.347 16.842H25.8048C26.0488 16.842 27.5544 16.6257 26.7812 15.1537C26.6998 15.0241 26.2933 14.0299 24.1775 11.9546C21.9808 9.79319 22.3063 10.1391 24.9099 6.42074C26.4965 4.17259 27.1067 2.78911 26.9442 2.18407C26.822 1.70861 25.5609 1.79485 25.5609 1.79485H21.6536C21.4864 1.77184 21.3165 1.80186 21.1656 1.88109C21.023 1.99251 20.9107 2.14155 20.8402 2.3132C20.442 3.43654 19.952 4.52141 19.3758 5.55561C17.6263 8.71178 16.9351 8.88654 16.6499 8.66843C15.9999 8.19297 16.1619 6.85285 16.1619 5.85813C16.1619 2.78866 16.6096 1.53477 15.3078 1.1889C14.7105 1.02695 14.0923 0.968541 13.4772 1.01596C12.0939 1.01596 10.9143 1.01596 10.2226 1.36183C9.77493 1.57811 9.44947 2.09692 9.65315 2.13981C10.0906 2.18738 10.4958 2.4041 10.7903 2.74805C11.1972 3.3102 11.1972 4.65033 11.1972 4.65033C11.1972 4.65033 11.4412 8.2386 10.6685 8.67117C10.1398 8.97369 9.40743 8.36865 7.8616 5.515C7.32935 4.5291 6.86698 3.50315 6.47828 2.44552C6.40271 2.26485 6.29199 2.10287 6.15325 1.97007C5.97939 1.82078 5.76666 1.73042 5.54307 1.7109H1.84122C1.84122 1.7109 1.27177 1.66755 1.06809 2.01342C1.02317 2.12259 1 2.24031 1 2.35929C1 2.47826 1.02317 2.59598 1.06809 2.70515C1.06809 2.70515 3.99767 9.96795 7.29302 13.5996C10.3036 17.1016 13.7208 16.842 13.7208 16.842V16.842Z" stroke="#C1C1C1" stroke-miterlimit="10" stroke-linecap="round" stroke-linejoin="round"/>
</svg>
