<svg width="32" height="32" viewBox="0 0 32 32" fill="none" xmlns="http://www.w3.org/2000/svg">
<path fill-rule="evenodd" clip-rule="evenodd" d="M8.55831 10.3632C10.0376 10.3632 10.9682 9.38494 10.9682 8.15615C10.9324 6.9035 10.0376 5.9491 8.58217 5.9491C7.1267 5.9491 6.1723 6.9035 6.1723 8.15615C6.1723 9.38494 7.09091 10.3632 8.52252 10.3632H8.55831ZM10.6819 24.894V12.1169H6.43476V24.894H10.6819Z" fill="#BDBDBD"/>
<path fill-rule="evenodd" clip-rule="evenodd" d="M13.0321 24.894H17.2792V17.7598C17.2792 17.3781 17.3031 16.9963 17.4224 16.7219C17.7325 15.9584 18.4245 15.171 19.6055 15.171C21.1445 15.171 21.753 16.3401 21.753 18.0581V24.894H26V17.5689C26 13.644 23.9004 11.8187 21.1087 11.8187C18.8182 11.8187 17.816 13.1071 17.2553 13.9661H17.2792V12.1169H13.0321C13.0798 13.3099 13.0321 24.894 13.0321 24.894Z" fill="#BDBDBD"/>
</svg>
